<svg id="visual" viewBox="0 0 900 600" width="900" height="600" xmlns="http://www.w3.org/2000/svg" xmlns:xlink="http://www.w3.org/1999/xlink" version="1.1"><rect x="0" y="0" width="900" height="600" fill="#212529"></rect><defs><linearGradient id="grad1_0" x1="33.3%" y1="0%" x2="100%" y2="100%"><stop offset="20%" stop-color="#212529" stop-opacity="1"></stop><stop offset="80%" stop-color="#212529" stop-opacity="1"></stop></linearGradient></defs><defs><linearGradient id="grad2_0" x1="0%" y1="0%" x2="66.7%" y2="100%"><stop offset="20%" stop-color="#212529" stop-opacity="1"></stop><stop offset="80%" stop-color="#212529" stop-opacity="1"></stop></linearGradient></defs><g transform="translate(900, 0)"><path d="M0 243.4C-27.7 244.6 -55.3 245.7 -75.2 231.5C-95.1 217.2 -107.1 187.5 -122.3 168.3C-137.4 149.1 -155.6 140.4 -174.7 127C-193.9 113.5 -213.8 95.2 -225.4 73.2C-237 51.3 -240.2 25.6 -243.4 0L0 0Z" fill="#4f8ac5"></path></g><g transform="translate(0, 600)"><path d="M0 -243.4C21.8 -228.9 43.7 -214.5 66.7 -205.4C89.8 -196.4 114.1 -192.8 130.5 -179.6C146.9 -166.4 155.3 -143.6 173.1 -125.8C191 -108 218.2 -95.3 231.5 -75.2C244.7 -55.1 244.1 -27.5 243.4 0L0 0Z" fill="#4f8ac5"></path></g></svg>